<svg xmlns="http://www.w3.org/2000/svg" viewBox="0 0 961.91 2172.01"><defs><style>.cls-1{fill:none;stroke:#000;stroke-miterlimit:10;stroke-width:8px;}</style></defs><title>Asset 2</title><g id="Layer_2" data-name="Layer 2"><g id="Layer_1-2" data-name="Layer 1"><path class="cls-1" d="M352.5,2h348c6,0,92.76,86.76,92.76,86.76A16.7,16.7,0,0,1,797.5,99v63a16.7,16.7,0,0,0,4.24,10.24l33.52,33.52A16.7,16.7,0,0,1,839.5,216V330a16.7,16.7,0,0,0,4.24,10.24L960.5,457"/><path class="cls-1" d="M931.35,427.85l-95.16,97.36A17,17,0,0,0,832,535.5v126a16.7,16.7,0,0,1-4.24,10.24l-10.52,10.52A16.7,16.7,0,0,0,813,692.5v32a6,6,0,0,0,6,6h26c3.3,0,4.09,1.91,1.76,4.24L683.24,898.26A16.7,16.7,0,0,0,679,908.5v24a15.76,15.76,0,0,0,4.4,10.08l32.2,29.84A15.62,15.62,0,0,1,720,982.5l-.94,213c0,3.3,0,8.7,0,12l-1,318a22.56,22.56,0,0,1-3.45,10.92l-23.14,33.16A22.43,22.43,0,0,0,688,1580.5v17a21.37,21.37,0,0,1-3.56,10.83l-81.88,111.34a13.43,13.43,0,0,1-9.56,4.83H403a6,6,0,0,0-6,6v163a16.7,16.7,0,0,1-4.24,10.24L279.24,2017.26A16.7,16.7,0,0,0,275,2027.5v55a16.7,16.7,0,0,1-4.24,10.24l-75.52,75.52a6,6,0,0,1-8.48,0l-16.52-16.52A16.7,16.7,0,0,0,160,2147.5H118"/><path class="cls-1" d="M225.65,2137.85l-47.39-47.12A16.58,16.58,0,0,1,174,2080.5v-101a16.7,16.7,0,0,0-4.24-10.24l-74.52-74.52A16.7,16.7,0,0,1,91,1884.5v-198a22,22,0,0,1,3.49-10.88l119-166.24A7.93,7.93,0,0,0,213,1500L132,1408a15.21,15.21,0,0,0-10-4.5H0"/><line class="cls-1" x1="68" y1="1566.5" x2="120.69" y2="1639.03"/><path class="cls-1" d="M39,1597.5v36a19.85,19.85,0,0,0,3.76,10.67l21.48,26.66A19.85,19.85,0,0,1,68,1681.5v17a6,6,0,0,0,6,6H175a6,6,0,0,1,6,6v51.62c0,1.86-2.7,3.38-6,3.38H131a13.16,13.16,0,0,0-9.49,4.88l-27,37.8c-1.92,2.69-.79,4.89,2.51,4.91l78,.38a13.39,13.39,0,0,1,9.53,4.88l86.94,119.3a13.28,13.28,0,0,0,9.53,4.85H441a16.7,16.7,0,0,1,10.24,4.24l35.52,35.52A16.7,16.7,0,0,0,497,1986.5h75"/><line class="cls-1" x1="397" y1="1832.83" x2="346" y2="1832.5"/><path class="cls-1" d="M181,1765.5h23a13.68,13.68,0,0,0,9.63-4.78l124.74-164.44a8.43,8.43,0,0,0,0-9.58l-43.8-58.4a13.56,13.56,0,0,0-9.6-4.8H242a16.7,16.7,0,0,1-10.24-4.24L217,1504.5"/><path class="cls-1" d="M342,1591.5l329,1a12.28,12.28,0,0,0,9.26-5l16.67-25.76"/><path class="cls-1" d="M346,741.5h7a16.7,16.7,0,0,1,10.24,4.24l4.52,4.52A16.7,16.7,0,0,0,378,754.5h80a16.7,16.7,0,0,1,10.24,4.24L584.76,875.26A16.7,16.7,0,0,1,589,885.5v193a15.41,15.41,0,0,0,4.46,10l121.08,109c2.45,2.2,1.76,4-1.54,4l-120-.9a16.25,16.25,0,0,0-10.21,4.23L401.21,1389.22A16.9,16.9,0,0,0,397,1399.5v319a6,6,0,0,0,6,6H542.56a6,6,0,0,0,6-6v-126"/><line class="cls-1" x1="589" y1="977.22" x2="720" y2="976.5"/><path class="cls-1" d="M389,1014.5h5.5a18.27,18.27,0,0,1,10.08,3.88l16.84,14.24a14.77,14.77,0,0,1,4.58,9.88v152a6,6,0,0,0,6,6H587"/><path class="cls-1" d="M397,1450.5l-41.76-41.76a16.3,16.3,0,0,1-4.14-10.24l.8-46a15.94,15.94,0,0,0-4.21-10.18l-93.38-90.64a5.7,5.7,0,0,1,.06-8.29l41.26-38.78A17.51,17.51,0,0,1,306,1200.5H420a17,17,0,0,1,10.29,4.19l123.42,120.62A17,17,0,0,0,564,1329.5H718.61"/><path class="cls-1" d="M300,1200.5l186.79,189.72A16.9,16.9,0,0,1,491,1400.5v35a21.77,21.77,0,0,0,3.51,10.86l6,8.28a13.23,13.23,0,0,0,9.51,4.86H674a11,11,0,0,1,8.8,5.31L718,1531.5"/><path class="cls-1" d="M558,1329.5v124a19,19,0,0,1-3.89,10.57l-50.22,58.86a14.78,14.78,0,0,1-9.89,4.57H424a19.63,19.63,0,0,0-10.65,3.79L397,1544.59"/><path class="cls-1" d="M500,1527.5H646a13.76,13.76,0,0,1,9.65,4.76L688,1574.5"/><line class="cls-1" x1="575.24" y1="1592.5" x2="575.24" y2="1527.5"/><line class="cls-1" x1="558" y1="1527.5" x2="558" y2="1459.5"/></g></g></svg>